<?xml version="1.0" standalone="no"?>
<!DOCTYPE svg PUBLIC "-//W3C//DTD SVG 20010904//EN"
 "http://www.w3.org/TR/2001/REC-SVG-20010904/DTD/svg10.dtd">
<svg version="1.0" xmlns="http://www.w3.org/2000/svg"
 width="512.000000pt" height="512.000000pt" viewBox="0 0 512.000000 512.000000"
 preserveAspectRatio="xMidYMid meet">
<metadata>
Created by potrace 1.11, written by Peter Selinger 2001-2013
</metadata>
<g transform="translate(0.000000,512.000000) scale(0.100000,-0.100000)"
fill="#000000" stroke="none">
<path d="M468 5034 c-15 -8 -30 -23 -33 -34 -4 -11 -7 -120 -7 -240 1 -162 -3
-220 -11 -220 -7 -1 -92 -2 -189 -3 -172 -2 -177 -3 -202 -26 l-26 -24 0
-1568 0 -1568 24 -28 24 -28 1093 0 c1080 0 1092 -1 1100 -20 4 -11 13 -47 20
-80 85 -404 384 -782 768 -971 223 -110 417 -153 667 -149 84 2 156 5 161 8 5
3 31 8 57 11 143 18 369 103 516 195 128 80 316 248 383 341 176 248 256 437
292 695 12 92 13 328 1 400 -4 22 -9 49 -11 60 -8 48 -38 157 -65 232 -74 209
-200 399 -369 557 -62 59 -61 57 -121 102 -153 115 -325 198 -500 244 -25 6
-61 16 -81 21 l-36 9 0 766 0 765 -26 26 -26 27 -188 1 -188 1 -1 219 c-1 121
-2 228 -3 238 0 9 -16 26 -33 37 -30 18 -50 20 -222 19 l-189 -1 -27 -27 -28
-27 0 -200 c-1 -109 -1 -213 -1 -229 l-1 -30 -387 0 -388 0 -2 195 c-2 287 0
268 -28 294 -25 23 -31 24 -216 25 -192 1 -219 -3 -246 -38 -9 -12 -12 -81
-13 -246 l0 -230 -363 2 c-199 1 -374 2 -389 2 l-28 1 0 220 c0 235 -5 262
-49 279 -41 16 -380 12 -413 -5z"/>
</g>
</svg>
